<?xml version="1.0" encoding="UTF-8" standalone="no"?>
<!-- Created with Inkscape (http://www.inkscape.org/) -->

<svg
   xmlns:dc="http://purl.org/dc/elements/1.1/"
   xmlns:cc="http://creativecommons.org/ns#"
   xmlns:rdf="http://www.w3.org/1999/02/22-rdf-syntax-ns#"
   xmlns:svg="http://www.w3.org/2000/svg"
   xmlns="http://www.w3.org/2000/svg"
   xmlns:xlink="http://www.w3.org/1999/xlink"
   xmlns:sodipodi="http://sodipodi.sourceforge.net/DTD/sodipodi-0.dtd"
   xmlns:inkscape="http://www.inkscape.org/namespaces/inkscape"
   width="1300"
   height="1000"
   id="svg2"
   version="1.1"
   inkscape:version="0.47 r22583"
   sodipodi:docname="eperon.svg"
   inkscape:export-filename="/home/rapha/Bureau/eperon.png"
   inkscape:export-xdpi="90"
   inkscape:export-ydpi="90">
  <defs
     id="defs4">
    <linearGradient
       id="linearGradient3821">
      <stop
         style="stop-color:#babdb6;stop-opacity:0;"
         offset="0"
         id="stop3823" />
      <stop
         id="stop3829"
         offset="0.02040573"
         style="stop-color:#babdb6;stop-opacity:1" />
      <stop
         style="stop-color:#babdb6;stop-opacity:0;"
         offset="1"
         id="stop3825" />
    </linearGradient>
    <linearGradient
       id="linearGradient3811">
      <stop
         style="stop-color:#888a85;stop-opacity:0;"
         offset="0"
         id="stop3813" />
      <stop
         id="stop3819"
         offset="0.5"
         style="stop-color:#60625e;stop-opacity:0.49803922;" />
      <stop
         style="stop-color:#888a85;stop-opacity:0;"
         offset="1"
         id="stop3815" />
    </linearGradient>
    <linearGradient
       inkscape:collect="always"
       id="linearGradient3592">
      <stop
         style="stop-color:#e5e9ed;stop-opacity:1"
         offset="0"
         id="stop3594" />
      <stop
         style="stop-color:#fbfff6;stop-opacity:1"
         offset="1"
         id="stop3596" />
    </linearGradient>
    <inkscape:perspective
       sodipodi:type="inkscape:persp3d"
       inkscape:vp_x="0 : 526.18109 : 1"
       inkscape:vp_y="0 : 1000 : 0"
       inkscape:vp_z="744.09448 : 526.18109 : 1"
       inkscape:persp3d-origin="372.04724 : 350.78739 : 1"
       id="perspective10" />
    <linearGradient
       inkscape:collect="always"
       xlink:href="#linearGradient3592"
       id="linearGradient3598"
       x1="400"
       y1="499.51294"
       x2="400"
       y2="1207.8601"
       gradientUnits="userSpaceOnUse"
       gradientTransform="translate(0,52.362183)" />
    <inkscape:perspective
       id="perspective3837"
       inkscape:persp3d-origin="0.5 : 0.33333333 : 1"
       inkscape:vp_z="1 : 0.5 : 1"
       inkscape:vp_y="0 : 1000 : 0"
       inkscape:vp_x="0 : 0.5 : 1"
       sodipodi:type="inkscape:persp3d" />
    <filter
       inkscape:collect="always"
       id="filter3670"
       x="-0.20447868"
       width="1.4089574"
       y="-0.55576257"
       height="2.1115251">
      <feGaussianBlur
         inkscape:collect="always"
         stdDeviation="25.803263"
         id="feGaussianBlur3672" />
    </filter>
    <filter
       inkscape:collect="always"
       id="filter3696">
      <feGaussianBlur
         inkscape:collect="always"
         stdDeviation="2.2802472"
         id="feGaussianBlur3698" />
    </filter>
    <inkscape:perspective
       id="perspective3712"
       inkscape:persp3d-origin="0.5 : 0.33333333 : 1"
       inkscape:vp_z="1 : 0.5 : 1"
       inkscape:vp_y="0 : 1000 : 0"
       inkscape:vp_x="0 : 0.5 : 1"
       sodipodi:type="inkscape:persp3d" />
    <inkscape:perspective
       id="perspective3783"
       inkscape:persp3d-origin="0.5 : 0.33333333 : 1"
       inkscape:vp_z="1 : 0.5 : 1"
       inkscape:vp_y="0 : 1000 : 0"
       inkscape:vp_x="0 : 0.5 : 1"
       sodipodi:type="inkscape:persp3d" />
    <linearGradient
       inkscape:collect="always"
       xlink:href="#linearGradient3821"
       id="linearGradient3827"
       x1="68.321428"
       y1="232.85715"
       x2="286.67857"
       y2="232.85715"
       gradientUnits="userSpaceOnUse"
       gradientTransform="matrix(2.7540072,0,0,1,-119.83628,52.362183)" />
    <inkscape:perspective
       id="perspective3844"
       inkscape:persp3d-origin="0.5 : 0.33333333 : 1"
       inkscape:vp_z="1 : 0.5 : 1"
       inkscape:vp_y="0 : 1000 : 0"
       inkscape:vp_x="0 : 0.5 : 1"
       sodipodi:type="inkscape:persp3d" />
    <filter
       inkscape:collect="always"
       id="filter3862">
      <feGaussianBlur
         inkscape:collect="always"
         stdDeviation="0.40782639"
         id="feGaussianBlur3864" />
    </filter>
  </defs>
  <sodipodi:namedview
     id="base"
     pagecolor="#ffffff"
     bordercolor="#666666"
     borderopacity="1.0"
     inkscape:pageopacity="0.0"
     inkscape:pageshadow="2"
     inkscape:zoom="1"
     inkscape:cx="829.66215"
     inkscape:cy="648.45465"
     inkscape:document-units="px"
     inkscape:current-layer="layer1"
     showgrid="false"
     inkscape:window-width="1920"
     inkscape:window-height="1020"
     inkscape:window-x="-4"
     inkscape:window-y="-3"
     inkscape:window-maximized="1">
    <inkscape:grid
       type="xygrid"
       id="grid2816"
       empspacing="5"
       visible="true"
       enabled="true"
       snapvisiblegridlinesonly="true" />
  </sodipodi:namedview>
  <metadata
     id="metadata7">
    <rdf:RDF>
      <cc:Work
         rdf:about="">
        <dc:format>image/svg+xml</dc:format>
        <dc:type
           rdf:resource="http://purl.org/dc/dcmitype/StillImage" />
        <dc:title></dc:title>
      </cc:Work>
    </rdf:RDF>
  </metadata>
  <g
     inkscape:label="Calque 1"
     inkscape:groupmode="layer"
     id="layer1"
     transform="translate(0,-52.362183)">
    <rect
       style="fill:url(#linearGradient3598);fill-opacity:1;stroke:none"
       id="rect2818"
       width="1300"
       height="1000"
       x="0"
       y="52.362183" />
    <rect
       style="fill:#ffffff;fill-opacity:1;stroke:none;filter:url(#filter3670)"
       id="rect2884"
       width="302.85715"
       height="111.42857"
       x="65.714287"
       y="44.285721"
       transform="matrix(0.851109,0,0,0.851109,15.656943,69.690009)" />
    <g
       id="g3919"
       transform="translate(-168.57143,5.7142857)">
      <g
         transform="translate(-9.0913729,2.0203051)"
         id="g3877">
        <g
           id="g3790"
           transform="translate(259.22336,96.311842)">
          <path
             style="fill:#948f8c"
             d="M 30.020938,91.077467 C 29.023037,89.875071 26.362039,89.552239 17.448984,89.552239 8.5040202,89.552239 5.8146812,89.224063 4.5714286,87.98081 3.2128287,86.622211 3,82.353854 3,56.465237 l 0,-29.944145 28.25,0.265574 28.25,0.265573 0.265164,29.287407 c 0.172522,19.05507 -0.101803,29.973092 -0.785184,31.25 -0.951291,1.777503 -2.147732,1.962593 -12.686423,1.962593 -9.025395,0 -12.014204,0.342202 -13.321434,1.525228 -1.510486,1.366971 -1.8167,1.366971 -2.951185,0 z M 17.685134,82.174094 c -0.290864,-0.75798 -0.0015,-1.948997 0.643011,-2.646704 0.896616,-0.970607 0.894491,-1.112834 -0.009,-0.605544 -0.649496,0.364659 -1.442505,0.239733 -1.762243,-0.277613 -0.319737,-0.517347 0.211668,-1.147486 1.180902,-1.400311 1.405023,-0.366499 1.327838,-0.483195 -0.380768,-0.575682 C 15.257722,76.554607 14,78.249859 14,81.193043 c 0,0.812477 0.45,1.199115 1,0.859196 0.55,-0.339919 1,-0.141476 1,0.440983 0,0.582459 0.498145,1.059017 1.106989,1.059017 0.608844,0 0.869009,-0.620165 0.578145,-1.378145 z m 4.68243,-0.836141 C 22.100485,80.90581 21.233524,80.552239 20.440983,80.552239 19.648442,80.552239 19,80.90581 19,81.337953 c 0,0.432143 0.866962,0.785715 1.926581,0.785715 1.05962,0 1.708062,-0.353572 1.440983,-0.785715 z M 47.105738,53.689086 c 0.675876,1.066795 0.866966,0.982691 0.878949,-0.386847 0.0084,-0.9625 -0.659687,-1.75 -1.484687,-1.75 -0.825,0 -1.464474,0.7875 -1.421053,1.75 0.05504,1.220124 0.243089,1.337256 0.621051,0.386847 0.457682,-1.15087 0.676597,-1.15087 1.40574,0 z M 48,47.16887 C 48,46.958018 47.099379,46.549984 45.99862,46.262129 44.897861,45.974274 44.249419,46.14679 44.557637,46.645498 45.095888,47.516406 48,47.957944 48,47.16887 z M 21.75,24.802802 c -1.5125,-0.210874 -2.756891,-0.916018 -2.765313,-1.566985 -0.0099,-0.767717 -0.322009,-0.699364 -0.888196,0.194537 -1.42734,2.253494 -2.977915,0.340953 -2.546626,-3.14111 0.220515,-1.780353 0.0584,-2.691425 -0.360244,-2.024605 -1.341278,2.136377 -4.931856,0.326425 -5.557422,-2.801405 C 8.5447238,10.025858 11.350978,6.6717248 17.5,6.059363 18.05,6.00459 19.567476,5.3728254 20.872168,4.6554411 22.187999,3.9319327 24.525849,3.6074086 26.122168,3.9266725 28.690315,4.4403019 29,4.2280125 29,1.9539146 c 0,-1.8897113 0.452286,-2.46053354 1.75,-2.2086422 0.9625,0.1868251 1.755509,1.232321 1.762243,2.3233242 0.0092,1.4857617 0.581289,1.9038659 2.27942,1.6657997 1.246948,-0.1748133 3.763019,0.1758296 5.591269,0.7792065 1.82825,0.6033769 4.40251,1.2993487 5.720579,1.5466039 C 49.181913,6.6376811 52,10.079518 52,13.261813 c 0,1.397435 -1.205412,3.663442 -2.75,5.169618 -1.5125,1.474886 -3.2,3.468375 -3.75,4.429976 -0.827905,1.447479 -2.720951,1.797965 -11,2.036584 -5.5,0.158521 -11.2375,0.115686 -12.75,-0.09519 z m 7.821429,-4.250563 c 0,-1.1 -0.578572,-2 -1.285715,-2 -0.707143,0 -1.285714,0.9 -1.285714,2 0,1.1 0.578571,2 1.285714,2 0.707143,0 1.285715,-0.9 1.285715,-2 z m 4.71832,0 c 0.347296,-1.32806 0.03068,-2 -0.942386,-2 -0.820528,0 -1.163015,0.489265 -0.778265,1.111803 0.377923,0.611492 0.06698,1.504602 -0.690983,1.984688 -1.111398,0.703948 -1.061997,0.875847 0.255254,0.888196 0.898352,0.0084 1.868724,-0.884687 2.15638,-1.984687 z m -9.373082,-0.595286 c 0.229166,-0.222593 -0.846224,-0.404714 -2.389758,-0.404714 -1.543533,0 -3.443358,-0.7875 -4.221833,-1.75 -1.286896,-1.591108 -1.32033,-1.553035 -0.368232,0.41933 0.774593,1.604645 0.723877,2.304302 -0.194834,2.687848 -0.683105,0.285185 0.55799,0.278608 2.75799,-0.01462 2.2,-0.293224 4.1875,-0.715256 4.416667,-0.937848 z M 43,20.552239 c -0.825,-0.533156 -1.95,-0.969374 -2.5,-0.969374 -0.55,0 -0.325,0.436218 0.5,0.969374 0.825,0.533156 1.95,0.969374 2.5,0.969374 0.55,0 0.325,-0.436218 -0.5,-0.969374 z M 39,20.159228 C 39,19.943072 38.325,19.507195 37.5,19.190613 36.675,18.87403 36,19.050885 36,19.583624 c 0,0.532738 0.675,0.968615 1.5,0.968615 0.825,0 1.5,-0.176855 1.5,-0.393011 z m 5,-2.606989 c 0,-0.55 -0.198442,-1 -0.440983,-1 -0.242541,0 -0.719098,0.45 -1.059017,1 -0.339919,0.55 -0.141476,1 0.440983,1 0.582459,0 1.059017,-0.45 1.059017,-1 z M 25,15.529281 c 0,-0.927142 -3.820828,-0.07597 -4.485322,0.999208 -0.249784,0.40416 0.657229,0.522382 2.015584,0.262716 C 23.888618,16.531539 25,15.963673 25,15.529281 z m 7,1.645403 C 32,16.967028 31.314699,16.228379 30.477108,15.53324 29.203761,14.476456 29.05743,14.538323 29.584097,15.910795 30.121993,17.312532 32,18.295018 32,17.174684 z m 8.239919,-0.974167 c 0.637216,0.393821 0.776783,0.187764 0.345491,-0.510081 C 40.187426,15.046484 39.442898,14.778513 38.930902,15.094944 38.418906,15.411375 38,15.118715 38,14.444589 c 0,-0.674126 -0.235592,-0.990091 -0.523539,-0.702145 -0.287946,0.287946 -0.205362,1.352694 0.183521,2.366105 0.426141,1.110506 0.866732,1.363549 1.108949,0.636898 0.221039,-0.663118 0.882984,-0.908337 1.470988,-0.54493 z M 21.5,12.552239 c 0.339919,-0.55 0.141476,-1 -0.440983,-1 -0.582459,0 -1.059017,0.45 -1.059017,1 0,0.55 0.198442,1 0.440983,1 0.242541,0 0.719098,-0.45 1.059017,-1 z m 4.037985,-0.93854 c -0.319028,-0.516196 0.216915,-1.402512 1.190983,-1.9695912 1.585697,-0.923154 1.529398,-1.034234 -0.537985,-1.06146 -1.290418,-0.016995 -2.036378,0.410731 -1.690983,0.969591 0.339919,0.5500002 0.02898,1.0068912 -0.690983,1.0153132 -0.951189,0.01113 -0.898983,0.280297 0.190983,0.984687 1.898656,1.227006 2.267439,1.241743 1.537985,0.06146 z M 17,10.614388 C 17,10.09857 16.131175,9.7419828 15.069278,9.8219738 14.007381,9.9019638 13.358939,10.323997 13.628295,10.759825 14.313581,11.868641 17,11.752764 17,10.614388 z M 47.44113,10.084042 C 45.235635,8.4158899 43,8.1062342 43,9.4689058 c 0,1.0948182 1.775084,1.8959552 4.44113,2.0043862 1.921506,0.07815 1.921506,0.0641 0,-1.38925 z M 37.269032,8.8963018 c -0.677033,-0.273923 -2.027033,-0.290597 -3,-0.03705 -0.972968,0.25354 -0.419032,0.477659 1.230968,0.498038 1.65,0.02038 2.446064,-0.187065 1.769032,-0.460988 z"
             id="path3804" />
          <path
             style="fill:#8c867c"
             d="M 30,90.657566 C 30,90.165497 24.563276,89.602383 17.918392,89.406203 2.7455999,88.95825 3,89.212077 3,74.521416 3,58.467202 4.2418781,27.460784 4.860124,28.07903 c 0.2991394,0.299139 0.4324566,2.198517 0.2962605,4.220838 -0.1361962,2.022322 0.00921,3.42011 0.3231235,3.106196 0.3139141,-0.313914 0.6323577,-2.209444 0.7076523,-4.212289 0.1261299,-3.355067 0.3798212,-3.647555 3.2248696,-3.718047 1.6983831,-0.04208 3.8776131,-0.227578 4.8427331,-0.412215 0.96512,-0.184638 1.501062,0.07479 1.190983,0.576511 -0.310079,0.501718 -0.08722,0.912215 0.495237,0.912215 C 16.523442,28.552239 17,28.079966 17,27.502744 17,26.44532 55.999202,26.230966 58.715893,27.273458 59.720052,27.658791 60,34.016663 60,56.436722 60,80.7673 59.764358,85.443653 58.443296,87.329733 c -1.460163,2.084674 -2.293724,2.222506 -13.440983,2.222506 -6.844163,0 -12.146387,0.424099 -12.502313,1 -0.767664,1.242106 -2.5,1.315091 -2.5,0.105327 z m 27.5,-9.509322 0,-5.903995 -3.261129,-0.096 c -2.225316,-0.06551 -3.10875,0.301025 -2.781384,1.153995 0.263859,0.6875 0.142015,1.25 -0.270764,1.25 -0.412779,0 -0.843615,1.125 -0.957414,2.5 -0.245945,2.971694 1.730419,3.370003 2.480942,0.5 0.573445,-2.192858 2.280582,-2.74831 2.305062,-0.75 0.01021,0.833328 0.338437,0.749995 0.984687,-0.250005 0.743749,-1.15087 0.969374,-0.80174 0.969374,1.5 0,3.534348 -1.813164,6.764638 -2.642751,4.708262 -0.425872,-1.05565 -0.807214,-1.05565 -2.08649,0 -1.246657,1.028733 -1.651458,1.035963 -1.988165,0.03551 C 50.019435,85.105082 49.417614,84.794139 48.91459,85.105025 48.411565,85.415912 48,85.177883 48,84.576072 c 0,-0.784323 -0.5664,-0.791073 -2,-0.02383 -3.860021,2.06582 -2.109407,3.096172 4.75,2.79569 l 6.75,-0.29569 0,-5.903995 z m -40.138374,2.903995 c 0.345782,-0.901092 1.885769,-1.512698 3.856989,-1.531803 3.027421,-0.02934 3.138421,-0.140119 1.434186,-1.431317 -1.01596,-0.769732 -2.59096,-1.171443 -3.5,-0.892691 -1.29279,0.396427 -1.255711,0.252831 0.17023,-0.659244 1.63932,-1.048559 1.669819,-1.335364 0.30265,-2.846069 -0.836209,-0.924001 -1.96555,-2.795749 -2.509645,-4.159439 -0.978396,-2.4522 -0.98996,-2.445566 -1.05265,0.603896 -0.04199,2.042706 -1.066514,4.067711 -3.035608,6 -3.7468957,3.67686 -3.7489437,4.176126 -0.01488,3.628082 2.457597,-0.360698 2.898646,-0.14447 2.393011,1.173193 -0.340939,0.888466 -0.169887,1.615392 0.380113,1.615392 0.55,0 1.259022,-0.675 1.575604,-1.5 z m 24.467115,-2.402621 c -0.720409,-1.153559 -1.672597,-2.097379 -2.115973,-2.097379 -0.443376,0 0.0024,1.080927 0.990547,2.402059 2.154526,2.880471 2.975743,2.658148 1.125426,-0.30468 z M 45,81.111256 c 0,-0.242541 -0.45,-0.719098 -1,-1.059017 -0.55,-0.339919 -1,-0.141476 -1,0.440983 0,0.582459 0.45,1.059017 1,1.059017 0.55,0 1,-0.198442 1,-0.440983 z M 11.590697,77.809603 C 10.8972,77.116105 9,78.525146 9,79.733701 c 0,0.663093 0.573782,0.587231 1.524166,-0.201518 0.838291,-0.69572 1.31823,-1.470881 1.066531,-1.72258 z M 25,79.552239 c 0,-0.55 -0.701558,-1 -1.559017,-1 -0.857459,0 -1.280902,0.45 -0.940983,1 0.339919,0.55 1.041476,1 1.559017,1 0.517541,0 0.940983,-0.45 0.940983,-1 z m 22,-0.5 c 0,-0.825 -0.675,-1.5 -1.5,-1.5 -0.825,0 -1.5,-0.45 -1.5,-1 0,-0.55 -1.151558,-1 -2.559017,-1 -1.679684,0 -2.313834,-0.396714 -1.845491,-1.154508 0.452357,-0.73193 0.273172,-0.882356 -0.489542,-0.410973 -0.927193,0.573037 -0.905296,1.104626 0.09549,2.318228 1.151708,1.396616 1.046658,1.440474 -0.928937,0.387834 -1.793269,-0.955494 -2.128697,-0.929398 -1.720684,0.133867 0.278746,0.7264 2.180232,1.433426 4.225524,1.571169 2.045293,0.137743 4.147101,0.678829 4.670684,1.202412 C 46.742789,80.895028 47,80.804202 47,79.052239 z M 34,72.587423 c 0,-0.530649 -1.0125,-1.48894 -2.25,-2.129536 l -2.25,-1.16472 2,2.070103 c 2.341149,2.42321 2.5,2.500993 2.5,1.224153 z m 18.124088,-3.301851 c -0.987616,-0.980267 -1.10248,-0.865403 -0.559795,0.559795 0.375531,0.986221 0.934692,1.541221 1.242579,1.233333 0.307887,-0.307887 6.34e-4,-1.114794 -0.682784,-1.793128 z M 18,65.993222 c 0,-2.118034 -0.404882,-3.308786 -1,-2.940983 -0.55,0.339919 -1,1.941476 -1,3.559017 0,1.617541 0.45,2.940983 1,2.940983 0.55,0 1,-1.601558 1,-3.559017 z m 25,1.559017 c 0,-0.55 -0.476558,-1 -1.059017,-1 -0.582459,0 -0.780902,0.45 -0.440983,1 0.339919,0.55 0.816476,1 1.059017,1 0.242541,0 0.440983,-0.45 0.440983,-1 z M 19.345077,55.009111 c -0.325685,-0.848721 -0.806623,-1.32866 -1.068751,-1.066531 -0.262128,0.262128 -0.179978,0.956536 0.182555,1.543128 0.98605,1.595461 1.56238,1.28551 0.886196,-0.476597 z m 7.38409,-0.06104 c -0.332292,-0.332291 -1.194792,-0.367818 -1.916667,-0.07895 -0.797733,0.319226 -0.560776,0.556183 0.604167,0.604167 1.054166,0.04342 1.644791,-0.192928 1.3125,-0.52522 z m 21.824684,-0.482965 c 0.940949,-1.522489 -1.102414,-3.300078 -2.969775,-2.583505 -0.89841,0.344753 -1.3022,1.241618 -0.960228,2.132783 0.682496,1.778558 2.948723,2.038466 3.930003,0.450722 z M 24,51.111256 c 0,-0.242541 -0.45,-0.719098 -1,-1.059017 -0.55,-0.339919 -1,-0.141476 -1,0.440983 0,0.582459 0.45,1.059017 1,1.059017 0.55,0 1,-0.198442 1,-0.440983 z M 14.808323,48.616922 C 14.143579,47.552498 13.239765,46.904056 12.799849,47.175939 12.359932,47.447823 12,47.118715 12,46.444589 c 0,-0.674126 -0.297241,-0.928442 -0.660536,-0.565147 -0.736328,0.736328 2.485092,4.672797 3.823997,4.672797 0.469418,0 0.309605,-0.870892 -0.355138,-1.935317 z M 18,46.552239 c 0,-0.55 -0.476558,-1 -1.059017,-1 -0.582459,0 -0.780902,0.45 -0.440983,1 0.339919,0.55 0.816476,1 1.059017,1 0.242541,0 0.440983,-0.45 0.440983,-1 z m 32.443296,-1.222506 c 0.933651,-1.332973 1.492651,-4.034585 1.396667,-6.75 -0.137982,-3.903544 -0.209637,-4.045146 -0.519943,-1.027494 -0.640782,6.231446 -1.287196,7.854807 -3.394008,8.523483 -1.320655,0.41916 -2.767008,0.0254 -3.997676,-1.088338 -2.069367,-1.872751 -2.72929,-0.636099 -0.728336,1.364855 1.909301,1.909301 5.549731,1.395396 7.243296,-1.022506 z m -39.68233,-3.569232 c 1.39614,1.151278 1.428247,1.03239 0.295267,-1.093362 -0.919337,-1.724904 -1.4873071,-2.035441 -2.0519165,-1.121884 -0.4708258,0.761812 -1.3212447,0.937706 -2.1425131,0.443141 -1.0311015,-0.620926 -1.0064178,-0.382568 0.1016455,0.981538 0.9259525,1.139915 1.6044101,1.378728 1.8472459,0.650221 0.2790958,-0.837288 0.811137,-0.799001 1.9502712,0.140346 z m 30.944767,-5.458262 c -0.238353,-1.2375 -0.433369,-0.225 -0.433369,2.25 0,2.475 0.195016,3.4875 0.433369,2.25 0.238353,-1.2375 0.238353,-3.2625 0,-4.5 z m -25.887687,-14.25 c -0.626492,-1.375 -1.484701,-2.5 -1.907132,-2.5 C 12.067271,19.552239 10,16.143369 10,13.103255 10,9.3784158 11.321417,7.8957383 15.281061,7.177718 18.921862,6.5175149 18.743072,7.8332851 15,9.2461368 c -2.413961,0.9111692 -2.97734,1.6865452 -2.883999,3.9692382 0.0638,1.560275 0.312491,2.097688 0.552644,1.19425 0.296055,-1.113737 1.113985,-1.465484 2.54037,-1.092476 1.433968,0.374991 1.875972,0.181618 1.38834,-0.607386 -0.42498,-0.687633 -0.08251,-1.157524 0.843628,-1.157524 0.857459,0 1.593447,0.3375 1.635528,0.75 0.154425,1.513748 0.749457,3.800138 1.496435,5.75 0.755787,1.97286 0.736743,1.974149 -1.403381,0.09501 C 17.736574,16.889013 17,16.675956 17,17.519696 c 0,0.98629 -0.321578,1.010547 -1.410972,0.106429 -0.844084,-0.700527 -1.64532,-0.791821 -1.994257,-0.227229 -0.666033,1.077665 2.153063,2.427224 3.426373,1.640275 0.462363,-0.285755 1.123311,-0.06221 1.468775,0.496756 0.345463,0.558972 0.121233,1.016312 -0.49829,1.016312 -0.671329,0 -0.869951,0.808013 -0.491629,2 0.903071,2.845326 -0.323912,2.480576 -1.681954,-0.5 z m 8.361803,1.986817 c 0.814141,-0.81414 11.652922,-0.987379 12.441447,-0.198854 0.391621,0.39162 -2.362963,0.712037 -6.121296,0.712037 -3.758333,0 -6.602401,-0.230932 -6.320151,-0.513183 z m 19.43464,-0.486817 c 1.028402,-1.384136 0.87756,-6.841284 -0.219423,-7.938268 -0.260916,-0.260915 -0.732704,0.513395 -1.048419,1.720691 -0.315715,1.207295 -0.977693,1.945603 -1.471062,1.640685 -0.493368,-0.304919 -0.251155,-1.476519 0.538252,-2.603556 0.789407,-1.127036 1.213555,-2.626978 0.942551,-3.333204 -0.730446,-1.903512 1.136363,-2.629702 3.98043,-1.54839 1.871623,0.71159 2.368836,1.47162 1.967284,3.007154 -0.29555,1.130188 -1.148631,2.054888 -1.895733,2.054888 -0.955097,0 -1.191759,0.833048 -0.797166,2.806013 0.401603,2.008018 0.03901,3.216666 -1.275,4.25 -1.61679,1.271441 -1.703029,1.264747 -0.721714,-0.05601 z m 1.885511,-11 c -0.339919,-0.55 -1.068034,-1 -1.618034,-1 -0.55,0 -0.721885,0.45 -0.381966,1 0.339919,0.55 1.068034,1 1.618034,1 0.55,0 0.721885,-0.45 0.381966,-1 z m -23.5,9 c 0,-0.55 0.476558,-1 1.059017,-1 0.582459,0 0.780902,0.45 0.440983,1 -0.339919,0.55 -0.816476,1 -1.059017,1 -0.242541,0 -0.440983,-0.45 -0.440983,-1 z m 7.542705,-0.930902 c -0.68307,-1.105231 0.894408,-2.298652 1.817815,-1.375245 0.950785,0.950786 0.773587,2.306147 -0.301503,2.306147 -0.517541,0 -1.199881,-0.418906 -1.516312,-0.930902 z m -5.230969,-4.819098 c 0.119168,-1.740704 -0.270507,-2.658246 -1.061736,-2.5 -0.6875,0.1375 -1.25,-0.515 -1.25,-1.45 0,-1.322222 0.266667,-1.433333 1.2,-0.5 1.406762,1.406762 3.176783,1.618665 2.350291,0.281372 -0.312259,-0.505246 0.786183,-1.216 2.440983,-1.579455 C 30.930698,9.4085498 31.996134,7.2859176 30,6.0522388 c -1.608847,-0.994322 -1.19924,-5.5 0.5,-5.5 1.007752,0 1.5,1.0079365 1.5,3.0714286 0,2.7797334 0.147824,2.9236043 1.556527,1.5149012 0.85609,-0.8560901 2.54359,-1.3716725 3.75,-1.1457387 1.20641,0.2259338 2.804118,0.4442282 3.550462,0.4850988 0.746344,0.040871 1.119009,0.6944753 0.828145,1.4524551 -0.290864,0.7579797 -0.02401,1.8829797 0.593011,2.5 0.82914,0.82914 0.67829,1.121855 -0.578145,1.121855 -0.935,0 -1.7,-0.666427 -1.7,-1.480948 0,-2.0816782 -4.605346,-3.0565633 -6.323348,-1.3385612 -1.53438,1.5343804 -0.54022,5.8195094 1.350141,5.8195094 0.600182,0 0.870858,-0.356586 0.601502,-0.792414 -0.269356,-0.435828 0.446172,-0.862915 1.590064,-0.949081 1.566424,-0.117995 1.796163,0.126973 0.930722,0.992414 C 37.517086,12.435153 37,14.212239 37,15.752239 c 0,1.54 -0.525,2.8 -1.166667,2.8 -0.641666,0 -0.879962,-0.286705 -0.529545,-0.637122 0.905199,-0.905198 -3.173558,-6.362878 -4.755251,-6.362878 -1.572664,0 -2.754824,3.754474 -1.438345,4.568102 0.507337,0.313552 0.646891,1.015929 0.310119,1.560837 -0.352639,0.570582 -1.194242,0.223213 -1.984508,-0.819098 -1.284995,-1.694828 -1.374217,-1.698631 -1.404,-0.05984 -0.01749,0.9625 -0.454022,1.75 -0.970067,1.75 -0.516045,0 -0.853545,-1.2375 -0.75,-2.75 z m 8.230969,1.819098 C 32.226274,17.109341 32.424717,16.407784 32.983688,16.06232 33.54266,15.716857 34,16.135763 34,16.993222 c 0,1.756526 -0.600055,2.015159 -1.457295,0.628115 z M 49.454993,15.802239 C 50.49886,12.347162 49.166661,9.6355558 45.673632,8.1055195 42.59643,6.7576257 42.577829,6.7129082 45.061439,6.6338128 c 3.672254,-0.1169501 7.078043,3.364933 6.485837,6.6307502 -0.260754,1.437974 -0.991141,3.103464 -1.623082,3.701087 -0.854742,0.808326 -0.974899,0.510389 -0.469201,-1.163411 z m -29.438646,-4.75 C 19.070079,5.8817519 20.148022,4.3468164 24.75,4.3117607 28.100499,4.2862382 28.19169,4.7714991 25.0407,5.858681 22.740515,6.6523112 21.349859,7.8899184 20.89038,9.5522388 20.510319,10.927239 20.117004,11.602239 20.016347,11.052239 z M 24,7.540019 C 25.862536,6.3515291 28.709604,6.273352 29.400794,7.3917198 29.686149,7.8534344 28.250207,8.2910447 26.209811,8.3641873 23.50237,8.4612415 22.905292,8.2385559 24,7.540019 z m 11,0.01222 c 0,-0.55 0.648442,-1 1.440983,-1 0.792541,0 1.719098,0.45 2.059017,1 0.339919,0.55 -0.308524,1 -1.440983,1 -1.132459,0 -2.059017,-0.45 -2.059017,-1 z"
             id="path3802" />
          <path
             style="fill:#767785"
             d="M 30.45,90.659148 C 29.9275,90.167947 24.153396,89.574227 17.618657,89.339768 7.4638559,88.975426 5.5384272,88.641486 4.3686571,87.04173 2.907566,85.043569 2.6059143,60.112205 3.8742104,46.175963 L 4.5,39.299686 l 7.755606,9.376277 c 4.265583,5.156952 8.33682,10.051276 9.047193,10.876276 0.710373,0.825 4.42035,5.325 8.244394,10 3.824044,4.675 8.214689,9.909836 9.75699,11.63297 1.5423,1.723133 3.35388,3.884725 4.025732,4.803538 0.968967,1.325141 2.560254,1.607806 7.695818,1.367031 L 57.5,87.052239 57.800091,81.295981 C 58.146712,74.647173 61.552421,79.4121 30.146861,42.606349 27.591088,39.611109 24.15,35.561109 22.5,33.606349 20.85,31.651588 19.1625,29.902239 18.75,29.718906 18.3375,29.535572 18,28.716704 18,27.899197 18,26.627 20.845863,26.443571 37.75,26.626213 c 10.8625,0.117365 20.3125,0.421879 21,0.676697 0.960161,0.355879 1.25,7.111171 1.25,29.133812 0,24.330578 -0.235642,29.006931 -1.556704,30.893011 -1.45838,2.082129 -2.298429,2.222506 -13.3,2.222506 -6.495531,0 -12.190169,0.446873 -12.743296,1 -0.589327,0.589327 -1.39014,0.633231 -1.95,0.106909 z M 17.361626,84.052239 c 0.345782,-0.901092 1.885769,-1.512698 3.856989,-1.531803 3.027421,-0.02934 3.138421,-0.140119 1.434186,-1.431317 -1.01596,-0.769732 -2.59096,-1.171443 -3.5,-0.892691 -1.29279,0.396427 -1.255711,0.252831 0.17023,-0.659244 1.764042,-1.128335 1.764042,-1.231264 0,-3.180957 -1.413039,-1.561751 -1.764451,-3.355279 -1.562555,-7.974931 0.166962,-3.820305 -0.102298,-5.735833 -0.75,-5.335532 C 16.454714,63.389244 16,66.582838 16,70.142641 c 0,4.830725 -0.380458,6.618363 -1.5,7.047972 -0.825,0.316582 -1.5,1.154314 -1.5,1.861626 0,0.707312 -0.675,1.545044 -1.5,1.861626 -2.652289,1.017779 -1.598341,2.306422 1.512895,1.849789 2.457597,-0.360698 2.898646,-0.14447 2.393011,1.173193 -0.340936,0.888466 -0.169884,1.615392 0.380116,1.615392 0.55,0 1.259022,-0.675 1.575604,-1.5 z M 12,78.361917 C 12,77.047525 9.7272191,77.870582 9.2289399,79.365419 8.9853568,80.096169 9.4425258,80.319656 10.41644,79.94593 11.287398,79.611712 12,78.898906 12,78.361917 z m 13,1.190322 c 0,-0.55 -0.701558,-1 -1.559017,-1 -0.857459,0 -1.280902,0.45 -0.940983,1 0.339919,0.55 1.041476,1 1.559017,1 0.517541,0 0.940983,-0.45 0.940983,-1 z M 48.553851,54.465107 c 0.940949,-1.522489 -1.102414,-3.300078 -2.969775,-2.583505 -0.89841,0.344753 -1.3022,1.241618 -0.960228,2.132783 0.682496,1.778558 2.948723,2.038466 3.930003,0.450722 z m 1.617408,-8.567856 c 1.361181,-1.231851 1.792743,-2.957647 1.687943,-6.75 l -0.140798,-5.095012 -0.642331,5.306949 c -1.219618,10.076513 -8.430941,9.451529 -9.331741,-0.808755 l -0.394918,-4.498194 -0.174707,4.921259 c -0.26705,7.52244 4.38171,11.100129 8.996552,6.923753 z M 15.818046,22.052239 c -0.626492,-1.375 -1.484701,-2.5 -1.907132,-2.5 C 12.067271,19.552239 10,16.143369 10,13.103255 10,9.3976208 11.223929,8.0505647 15.25,7.3251058 18.907785,6.6660086 18.756539,7.8282021 15,9.2461368 c -2.413961,0.9111692 -2.97734,1.6865452 -2.883999,3.9692382 0.0638,1.560275 0.312491,2.097688 0.552644,1.19425 0.296055,-1.113737 1.113985,-1.465484 2.54037,-1.092476 1.433968,0.374991 1.875972,0.181618 1.38834,-0.607386 -0.42498,-0.687633 -0.08251,-1.157524 0.843628,-1.157524 0.857459,0 1.593447,0.3375 1.635528,0.75 0.154425,1.513748 0.749457,3.800138 1.496435,5.75 0.755787,1.97286 0.736743,1.974149 -1.403381,0.09501 C 17.736574,16.889013 17,16.675956 17,17.519696 c 0,0.98629 -0.321578,1.010547 -1.410972,0.106429 -0.844084,-0.700527 -1.64532,-0.791821 -1.994257,-0.227229 -0.666033,1.077665 2.153063,2.427224 3.426373,1.640275 0.462363,-0.285755 1.123311,-0.06221 1.468775,0.496756 0.345463,0.558972 0.121233,1.016312 -0.49829,1.016312 -0.671329,0 -0.869951,0.808013 -0.491629,2 0.903071,2.845326 -0.323912,2.480576 -1.681954,-0.5 z m 13.943613,1.792739 c 1.243913,-0.239193 3.043913,-0.230112 4,0.02018 C 34.717747,24.115451 33.7,24.311155 31.5,24.300056 29.3,24.288956 28.517747,24.084171 29.761659,23.844978 z M 44.269218,21.77959 c 0.0027,-0.950043 -0.07106,-2.852351 -0.163942,-4.227351 -0.155216,-2.297694 -0.276383,-2.358386 -1.497322,-0.75 -1.898489,2.500946 -3.0169,2.17194 -1.240097,-0.364802 0.814696,-1.163142 1.259535,-2.692624 0.988531,-3.39885 -0.730446,-1.903512 1.136363,-2.629702 3.98043,-1.54839 1.871623,0.71159 2.368836,1.47162 1.967284,3.007154 -0.29555,1.130188 -1.148631,2.054888 -1.895733,2.054888 -0.963248,0 -1.190897,0.837359 -0.782625,2.87872 0.316659,1.583296 0.139871,3.148104 -0.392862,3.477351 -0.532733,0.329247 -0.966382,-0.178677 -0.963664,-1.12872 z M 45.5,12.552239 c -0.339919,-0.55 -1.068034,-1 -1.618034,-1 -0.55,0 -0.721885,0.45 -0.381966,1 0.339919,0.55 1.068034,1 1.618034,1 0.55,0 0.721885,-0.45 0.381966,-1 z m -15.957295,8.069098 c -0.68307,-1.105231 0.894408,-2.298652 1.817815,-1.375245 0.950785,0.950786 0.773587,2.306147 -0.301503,2.306147 -0.517541,0 -1.199881,-0.418906 -1.516312,-0.930902 z m -5.244011,-4.569098 c 0.130612,-1.946471 -0.237665,-2.912206 -1.048694,-2.75 -0.6875,0.1375 -1.25,-0.515 -1.25,-1.45 0,-1.322222 0.266667,-1.433333 1.2,-0.5 1.406762,1.406762 3.176783,1.618665 2.350291,0.281372 -0.312259,-0.505246 0.786183,-1.216 2.440983,-1.579455 C 30.930698,9.4085498 31.996134,7.2859176 30,6.0522388 c -1.608847,-0.994322 -1.19924,-5.5 0.5,-5.5 1.007752,0 1.5,1.0079365 1.5,3.0714286 0,2.7929528 0.142557,2.9288711 1.572328,1.499101 1.049918,-1.0499186 2.461989,-1.3630064 4.25,-0.9423203 2.61184,0.6145182 5.394109,2.3717907 3.755227,2.3717907 -0.452344,0 -0.262244,0.675 0.422445,1.5 1.019571,1.228508 0.951235,1.5 -0.377555,1.5 C 40.7301,9.5522388 40,8.8858118 40,8.0712908 40,5.9896126 35.394654,5.0147275 33.676652,6.7327296 c -1.53438,1.5343804 -0.54022,5.8195094 1.350141,5.8195094 0.600182,0 0.870858,-0.356586 0.601502,-0.792414 -0.269356,-0.435828 0.446172,-0.862915 1.590064,-0.949081 1.566424,-0.117995 1.796163,0.126973 0.930722,0.992414 C 37.517086,12.435153 37,14.212239 37,15.752239 c 0,1.54 -0.476558,2.8 -1.059017,2.8 -0.582459,0 -0.800119,-0.418906 -0.483688,-0.930902 0.316431,-0.511996 0.117988,-1.213553 -0.440983,-1.559017 C 34.45734,15.716857 34,15.910763 34,16.493222 c 0,0.582459 -0.5051,1.059017 -1.122445,1.059017 -0.758008,0 -0.70356,-0.504724 0.167697,-1.554525 1.077974,-1.29888 0.939658,-1.905009 -0.841071,-3.685738 l -2.131212,-2.131212 -0.921319,2.435737 c -0.565406,1.494791 -0.560742,2.884232 0.01207,3.59671 0.578818,0.719945 0.574875,1.382549 -0.01038,1.744257 -0.519075,0.320806 -1.228309,-0.158205 -1.576076,-1.06447 -0.568529,-1.481564 -0.775903,-1.45577 -2.056091,0.255744 -1.332265,1.781141 -1.410845,1.710659 -1.222479,-1.096503 z M 49.379703,13.90513 C 49.487081,10.524199 49.124126,9.9311488 46,8.3828651 42.710311,6.7525299 42.653914,6.6454158 45.061439,6.6002704 c 3.842981,-0.072063 7.102799,3.4101476 6.31697,6.7479266 -1.024621,4.352036 -2.129011,4.65977 -1.998706,0.556933 z M 20.016347,11.052239 C 19.070079,5.8817519 20.148022,4.3468164 24.75,4.3117607 28.100499,4.2862382 28.19169,4.7714991 25.0407,5.858681 22.740515,6.6523112 21.349859,7.8899184 20.89038,9.5522388 20.510319,10.927239 20.117004,11.602239 20.016347,11.052239 z M 24,7.5522388 c 1.938759,-1.2529224 3,-1.2529224 3,0 0,0.55 -1.0125,0.9931093 -2.25,0.9846872 C 22.930562,8.5245435 22.787041,8.336113 24,7.5522388 z m 4,-0.059017 c 0,-0.5824593 0.45,-0.7809017 1,-0.440983 0.55,0.3399187 1,0.8164763 1,1.059017 0,0.2425406 -0.45,0.440983 -1,0.440983 -0.55,0 -1,-0.4765576 -1,-1.059017 z m 7,0.059017 c 0,-0.55 0.648442,-1 1.440983,-1 0.792541,0 1.719098,0.45 2.059017,1 0.339919,0.55 -0.308524,1 -1.440983,1 -1.132459,0 -2.059017,-0.45 -2.059017,-1 z"
             id="path3800" />
          <path
             style="fill:#9c6167"
             d="M 30.212744,90.364983 C 29.48333,89.635569 24.489418,89.021531 17.262744,88.772686 8.0138101,88.454206 5.2328631,88.025959 4.25,86.768812 2.9094034,85.054101 2.6722075,59.412473 3.8742104,46.144785 L 4.5,39.23733 l 7.309005,8.907455 c 4.019953,4.8991 8.083318,9.807454 9.029701,10.907454 0.946382,1.1 4.851547,5.825 8.678144,10.5 3.826597,4.675 8.424981,10.075 10.218631,12 1.793651,1.925 3.517258,4.2875 3.830239,5.25 0.454261,1.396975 1.725487,1.75 6.301668,1.75 3.152936,0 6.272612,-0.54 6.932612,-1.2 0.66,-0.66 1.2,-3.613984 1.2,-6.564409 C 58,75.937414 57.592784,74.938434 53.75,70.361753 49.931391,65.813863 44.633654,59.584148 30.146861,42.606349 27.591088,39.611109 24.15,35.561109 22.5,33.606349 20.85,31.651588 19.1625,29.902239 18.75,29.718906 18.3375,29.535572 18,28.719589 18,27.905608 c 0,-1.264144 2.906168,-1.449299 19.928803,-1.269685 10.960842,0.115653 20.430659,0.520441 21.044038,0.899531 0.790211,0.488377 1.02954,9.212552 0.821197,29.934758 -0.277609,27.611495 -0.402493,29.324746 -2.235168,30.663766 -1.399798,1.022744 -5.039111,1.418261 -13.05,1.418261 -6.109878,0 -11.55887,0.45 -12.10887,1 -0.666667,0.666667 -1.395752,0.604248 -2.187256,-0.187256 z M 17.361626,84.052239 c 0.347003,-0.904274 1.878809,-1.508831 3.856989,-1.522236 L 24.5,82.507767 22,80.552239 c -1.375,-1.075541 -2.092756,-1.965534 -1.595012,-1.977764 0.497743,-0.01223 0.101155,-0.91046 -0.881306,-1.996068 -1.340167,-1.480867 -1.752272,-3.478867 -1.650072,-8 0.07823,-3.460801 -0.291575,-6.026168 -0.868694,-6.026168 -0.571227,0 -1.016904,2.913081 -1.032694,6.75 -0.0253,6.147359 -0.293138,7.010401 -3,9.666667 -3.7387867,3.668903 -3.7315038,4.348386 0.04067,3.794748 2.457597,-0.360698 2.898646,-0.14447 2.393011,1.173193 -0.340933,0.888466 -0.169881,1.615392 0.380119,1.615392 0.55,0 1.259022,-0.675 1.575604,-1.5 z m -5.549126,-5.4375 c 0.25,-0.75 -0.125,-1.125 -0.875,-0.875 -0.721875,0.240625 -1.509375,1.028125 -1.75,1.75 -0.25,0.75 0.125,1.125 0.875,0.875 0.721875,-0.240625 1.509375,-1.028125 1.75,-1.75 z M 25,79.552239 c 0,-0.55 -0.701558,-1 -1.559017,-1 -0.857459,0 -1.280902,0.45 -0.940983,1 0.339919,0.55 1.041476,1 1.559017,1 0.517541,0 0.940983,-0.45 0.940983,-1 z M 48.787609,53.416583 c 0.365586,-1.89834 -1.907517,-3.026305 -3.77401,-1.872749 -1.815045,1.12176 -0.413366,4.232041 1.721893,3.820828 0.957848,-0.184464 1.8813,-1.0611 2.052117,-1.948079 z m 0.89794,-7.038658 c 1.90495,-1.789608 2.302015,-3.160831 2.244166,-7.75 -0.04688,-3.719266 -0.327386,-4.917671 -0.842476,-3.599362 -0.424705,1.086978 -0.619005,3.291987 -0.431777,4.900021 0.415276,3.566663 -1.127888,5.623655 -4.21889,5.623655 -2.973825,0 -3.487953,-0.923129 -3.599137,-6.462341 C 42.71372,32.926404 41,33.289922 41,39.479659 c 0,4.1321 0.425284,5.261948 2.634859,7 3.249962,2.55642 3.22069,2.556912 6.05069,-0.101734 z M 30.75,23.889958 c 0.6875,-0.277412 1.8125,-0.277412 2.5,0 0.6875,0.277413 0.125,0.504386 -1.25,0.504386 -1.375,0 -1.9375,-0.226973 -1.25,-0.504386 z M 16,22.101929 c 0,-0.79767 -0.7875,-1.956648 -1.75,-2.575505 -1.634344,-1.050833 -1.628939,-1.087161 0.08179,-0.54969 1.007481,0.316528 2.148552,0.575505 2.535712,0.575505 0.38716,0 0.703927,0.9 0.703927,2 0,1.1 -0.353572,2 -0.785715,2 C 16.353571,23.552239 16,22.8996 16,22.101929 z m 14.5,-1.54969 c -0.339919,-0.55 -0.141476,-1 0.440983,-1 0.582459,0 1.059017,0.45 1.059017,1 0,0.55 -0.198442,1 -0.440983,1 -0.242541,0 -0.719098,-0.45 -1.059017,-1 z M 19.450623,18.284161 C 19.028583,17.184342 17.778925,16.816667 15.177085,17.026799 11.15146,17.35192 10.038577,16.376421 10.015313,12.502239 9.9948942,9.1019758 11.749464,7.5330025 15.45,7.6424271 l 3.05,0.090188 -3.143381,0.9107755 c -3.524966,1.021338 -4.842118,3.2543284 -3.388622,5.7447904 0.866186,1.484149 0.974473,1.453234 1.001594,-0.285942 0.02365,-1.516667 0.297076,-1.683333 1.230409,-0.75 1.633206,1.633206 2.8,1.508192 2.8,-0.3 0,-2.782077 1.502225,-1.526819 2.6814,2.240576 1.142465,3.650104 0.95491,6.081197 -0.230777,2.991346 z m 24.628324,-0.63691 c -0.07849,-2.391109 -0.09193,-2.393995 -2.328947,-0.5 l -2.25,1.904988 1.77411,-2.105382 c 0.975761,-1.15796 1.507583,-2.799943 1.181827,-3.64885 -0.325757,-0.848907 -0.100457,-1.847433 0.500666,-2.218947 0.61014,-0.377087 0.971568,-0.09046 0.818174,0.648849 -0.173941,0.838336 0.550913,1.236913 1.975223,1.08612 2.53359,-0.268235 2.907789,0.937564 0.910714,2.934639 -0.736607,0.736607 -1.601081,2.00625 -1.921052,2.821428 -0.370602,0.944166 -0.610423,0.609199 -0.660715,-0.922845 z M 24.368874,17.052239 c 1.176634,-4.981179 1.834912,-6.492087 2.617712,-6.00829 0.463427,0.286413 1.091336,-0.04455 1.395356,-0.735479 0.304019,-0.6909272 0.292372,0.431269 -0.02588,2.493769 -0.389892,2.526768 -0.196894,3.75 0.591665,3.75 0.643669,0 0.856478,0.507787 0.472908,1.128416 -0.473006,0.76534 -1.003183,0.582011 -1.647754,-0.569774 -0.886005,-1.583202 -1.049421,-1.574969 -2.413396,0.121584 -1.398067,1.738956 -1.442061,1.730952 -0.99061,-0.180226 z m 8.646693,-1.018758 c 1.029449,-1.240409 0.947363,-1.864723 -0.44789,-3.40646 C 31.436302,11.376866 30.997903,9.6100828 31.269628,7.3957789 L 31.679926,4.0522388 31.839963,7.69525 c 0.100543,2.2887088 0.748072,3.868662 1.741824,4.25 2.115349,0.811736 2.633758,0.764765 2.046508,-0.185425 -0.269356,-0.435828 0.426771,-0.861453 1.546951,-0.945834 1.899579,-0.143091 1.926952,-0.03216 0.406611,1.647797 -0.956088,1.056465 -1.37437,2.584585 -1.011635,3.695833 0.522017,1.599215 0.435947,1.660742 -0.552021,0.394618 -0.884244,-1.133198 -1.294492,-1.194332 -1.677665,-0.25 -0.278962,0.6875 -0.974803,1.25 -1.546314,1.25 -0.621654,0 -0.53273,-0.610152 0.221345,-1.518758 z m 16.683288,-4.82363 C 49.331353,10.252156 47.561269,8.8300218 45.765335,8.0495544 43.189917,6.9303431 42.951985,6.6222523 44.639216,6.5913806 47.389737,6.5410536 51.42102,9.7891788 50.82547,11.57583 50.479877,12.612607 50.202576,12.522526 49.698855,11.209851 z M 19.621537,8.0287123 C 20.588691,5.4193663 21.968092,4.5614415 25,4.6835529 27.05226,4.7662086 27.141808,4.8708933 25.5,5.2680702 24.4,5.534176 22.462515,6.7088885 21.194479,7.8785424 19.0036,9.8994378 18.925385,9.9069058 19.621537,8.0287123 z M 23.75,7.8899581 c 0.6875,-0.2774123 1.8125,-0.2774123 2.5,0 0.6875,0.2774123 0.125,0.504386 -1.25,0.504386 -1.375,0 -1.9375,-0.2269737 -1.25,-0.504386 z m 12.75,-2.3377193 -3,-0.7633704 3,-0.103002 c 1.65,-0.056651 3.675,0.3332165 4.5,0.8663724 1.333333,0.8616662 1.333333,0.9579298 0,0.8663724 C 40.175,6.3619601 38.15,5.9720925 36.5,5.5522388 z M 30,2.1112558 c 0,-0.8574594 0.45,-1.559017 1,-1.559017 0.55,0 1,0.4234424 1,0.940983 0,0.5175407 -0.45,1.2190983 -1,1.559017 -0.55,0.3399187 -1,-0.083524 -1,-0.940983 z"
             id="path3798" />
          <path
             style="fill:#da0728"
             d="m 30.430775,90.177301 c -0.652066,-0.703527 -5.528954,-1.27224 -12.5,-1.457673 C 10.318526,88.517138 6.0585941,87.985055 5.1786493,87.126836 4.1549104,86.128373 3.880834,80.805784 3.9617926,63.495364 4.0192644,51.206854 4.2121069,41.006799 4.3903316,40.828574 4.6888866,40.530019 14.695301,52.393044 35.999218,78.302239 l 8.428095,10.25 5.586344,0 c 3.072488,0 6.126343,-0.54 6.786343,-1.2 0.681301,-0.681301 1.179496,-3.815109 1.152565,-7.25 l -0.04744,-6.05 -19.45256,-22.857208 C 27.753654,38.623567 19,28.161067 19,27.945031 c 0,-0.216036 9.2442,-0.392792 20.542666,-0.392792 l 20.542667,0 -0.292667,29.581713 C 59.513242,85.377235 59.40951,86.782498 57.5,88.192793 c -1.537111,1.135255 -4.623018,1.423163 -13.333241,1.243957 -7.171694,-0.147551 -11.578074,0.157405 -12,0.830494 -0.463287,0.739071 -0.993051,0.711623 -1.735984,-0.08994 z M 21.610243,83.516276 25.5,83.480313 l -3,-2.45907 c -1.65,-1.352488 -2.5275,-2.461305 -1.95,-2.464037 0.5775,-0.0027 1.59,0.535033 2.25,1.195033 0.901093,0.901093 1.485118,0.914882 2.344645,0.05535 0.859526,-0.859526 0.426086,-1.324991 -1.740098,-1.868668 -3.117425,-0.782419 -4.68149,-2.085802 -5.292614,-4.410492 -0.372184,-1.415774 -0.262528,-7.116723 0.177324,-9.218961 C 18.405166,63.755492 17.9375,63.095989 17.25,62.843906 16.332621,62.507533 16,64.085378 16,68.773488 c 0,5.905979 -0.264058,6.676201 -3.5,10.209026 -1.925,2.10161 -3.5,4.000147 -3.5,4.21897 0,0.218823 1.514917,0.230918 3.366483,0.02688 2.974886,-0.327829 3.315219,-0.127005 2.925779,1.726448 -0.41149,1.958403 -0.34562,1.981432 0.993761,0.34743 0.906097,-1.105411 2.867202,-1.763246 5.32422,-1.785963 z m -9.859776,-4.714037 c 0.6122,-1.83866 -2.4305791,-1.525998 -3.1399714,0.322649 -0.4208364,1.096682 -0.099981,1.474998 1.0601449,1.25 0.9149945,-0.177457 1.8509165,-0.885149 2.0798265,-1.572649 z M 48.787609,53.416583 c 0.365586,-1.89834 -1.907517,-3.026305 -3.77401,-1.872749 -1.815045,1.12176 -0.413366,4.232041 1.721893,3.820828 0.957848,-0.184464 1.8813,-1.0611 2.052117,-1.948079 z m 0.89794,-7.038658 C 51.542916,44.633019 52,43.151834 52,38.877925 c 0,-2.929127 -0.415909,-5.325686 -0.924243,-5.325686 -0.508333,0 -0.744334,2.104646 -0.524445,4.676991 0.44954,5.258893 -0.71027,7.323009 -4.11474,7.323009 -2.973825,0 -3.487953,-0.923129 -3.599137,-6.462341 C 42.707081,32.595694 41,33.460092 41,40.020302 c 0,4.93682 0.267173,5.613006 2.75,6.959962 3.519187,1.90919 3.23102,1.938433 5.935549,-0.602339 z M 30.75,23.889958 c 0.6875,-0.277412 1.8125,-0.277412 2.5,0 0.6875,0.277413 0.125,0.504386 -1.25,0.504386 -1.375,0 -1.9375,-0.226973 -1.25,-0.504386 z M 16,22.101929 c 0,-0.79767 -0.7875,-1.956648 -1.75,-2.575505 -1.634344,-1.050833 -1.628939,-1.087161 0.08179,-0.54969 1.007481,0.316528 2.148552,0.575505 2.535712,0.575505 0.38716,0 0.703927,0.9 0.703927,2 0,1.1 -0.353572,2 -0.785715,2 C 16.353571,23.552239 16,22.8996 16,22.101929 z m 14.5,-1.54969 c -0.339919,-0.55 -0.141476,-1 0.440983,-1 0.582459,0 1.059017,0.45 1.059017,1 0,0.55 -0.198442,1 -0.440983,1 -0.242541,0 -0.719098,-0.45 -1.059017,-1 z M 19.450623,18.284161 C 19.028583,17.184342 17.778925,16.816667 15.177085,17.026799 11.15146,17.35192 10.038577,16.376421 10.015313,12.502239 9.9948942,9.1019758 11.749464,7.5330025 15.45,7.6424271 l 3.05,0.090188 -3.143381,0.9107755 c -3.524966,1.021338 -4.842118,3.2543284 -3.388622,5.7447904 0.866186,1.484149 0.974473,1.453234 1.001594,-0.285942 0.02365,-1.516667 0.297076,-1.683333 1.230409,-0.75 1.633206,1.633206 2.8,1.508192 2.8,-0.3 0,-2.782077 1.502225,-1.526819 2.6814,2.240576 1.142465,3.650104 0.95491,6.081197 -0.230777,2.991346 z m 24.628324,-0.63691 c -0.07849,-2.391109 -0.09193,-2.393995 -2.328947,-0.5 l -2.25,1.904988 1.77411,-2.105382 c 0.975761,-1.15796 1.507583,-2.799943 1.181827,-3.64885 -0.325757,-0.848907 -0.100457,-1.847433 0.500666,-2.218947 0.61014,-0.377087 0.971568,-0.09046 0.818174,0.648849 -0.173941,0.838336 0.550913,1.236913 1.975223,1.08612 2.53359,-0.268235 2.907789,0.937564 0.910714,2.934639 -0.736607,0.736607 -1.601081,2.00625 -1.921052,2.821428 -0.370602,0.944166 -0.610423,0.609199 -0.660715,-0.922845 z M 24.368874,17.052239 c 1.176634,-4.981179 1.834912,-6.492087 2.617712,-6.00829 0.463427,0.286413 1.091336,-0.04455 1.395356,-0.735479 0.304019,-0.6909272 0.292372,0.431269 -0.02588,2.493769 -0.389892,2.526768 -0.196894,3.75 0.591665,3.75 0.643669,0 0.856478,0.507787 0.472908,1.128416 -0.473006,0.76534 -1.003183,0.582011 -1.647754,-0.569774 -0.886005,-1.583202 -1.049421,-1.574969 -2.413396,0.121584 -1.398067,1.738956 -1.442061,1.730952 -0.99061,-0.180226 z m 8.646693,-1.018758 c 1.029449,-1.240409 0.947363,-1.864723 -0.44789,-3.40646 C 31.436302,11.376866 30.997903,9.6100828 31.269628,7.3957789 L 31.679926,4.0522388 31.839963,7.69525 c 0.100543,2.2887088 0.748072,3.868662 1.741824,4.25 2.115349,0.811736 2.633758,0.764765 2.046508,-0.185425 -0.269356,-0.435828 0.426771,-0.861453 1.546951,-0.945834 1.899579,-0.143091 1.926952,-0.03216 0.406611,1.647797 -0.956088,1.056465 -1.37437,2.584585 -1.011635,3.695833 0.522017,1.599215 0.435947,1.660742 -0.552021,0.394618 -0.884244,-1.133198 -1.294492,-1.194332 -1.677665,-0.25 -0.278962,0.6875 -0.974803,1.25 -1.546314,1.25 -0.621654,0 -0.53273,-0.610152 0.221345,-1.518758 z m 16.683288,-4.82363 C 49.331353,10.252156 47.561269,8.8300218 45.765335,8.0495544 43.189917,6.9303431 42.951985,6.6222523 44.639216,6.5913806 47.389737,6.5410536 51.42102,9.7891788 50.82547,11.57583 50.479877,12.612607 50.202576,12.522526 49.698855,11.209851 z M 19.621537,8.0287123 C 20.588691,5.4193663 21.968092,4.5614415 25,4.6835529 27.05226,4.7662086 27.141808,4.8708933 25.5,5.2680702 24.4,5.534176 22.462515,6.7088885 21.194479,7.8785424 19.0036,9.8994378 18.925385,9.9069058 19.621537,8.0287123 z M 23.75,7.8899581 c 0.6875,-0.2774123 1.8125,-0.2774123 2.5,0 0.6875,0.2774123 0.125,0.504386 -1.25,0.504386 -1.375,0 -1.9375,-0.2269737 -1.25,-0.504386 z m 12.75,-2.3377193 -3,-0.7633704 3,-0.103002 c 1.65,-0.056651 3.675,0.3332165 4.5,0.8663724 1.333333,0.8616662 1.333333,0.9579298 0,0.8663724 C 40.175,6.3619601 38.15,5.9720925 36.5,5.5522388 z M 30,2.1112558 c 0,-0.8574594 0.45,-1.559017 1,-1.559017 0.55,0 1,0.4234424 1,0.940983 0,0.5175407 -0.45,1.2190983 -1,1.559017 -0.55,0.3399187 -1,-0.083524 -1,-0.940983 z"
             id="path3796" />
          <path
             style="fill:#524f5a"
             d="m 31.015313,90.924684 c -0.04003,-2.947655 2.90084,-3.57062 13.458831,-2.850986 13.221258,0.901162 13.700378,0.601703 13.511449,-8.444918 -0.473497,-22.672796 0.123353,-52.076541 1.057073,-52.076541 0.706653,0 0.948351,9.533113 0.75,29.581713 C 59.513242,85.377235 59.40951,86.782498 57.5,88.192793 c -1.537111,1.135255 -4.623018,1.423163 -13.333241,1.243957 -8.90771,-0.183268 -11.526168,0.07166 -12.234687,1.191159 -0.4995,0.789234 -0.908274,0.921563 -0.916759,0.296775 z M 15.342315,88.765935 c -7.2490981,-0.226635 -9.4273906,-0.643462 -10.4517719,-2 -1.097176,-1.452937 -1.0807905,-1.523494 0.1076851,-0.463696 0.9450543,0.842732 5.0642468,1.25 12.6427548,1.25 6.182541,0 11.468532,0.368182 11.746647,0.818182 0.278115,0.45 -0.707827,0.7875 -2.190983,0.75 -1.483156,-0.0375 -6.817605,-0.197019 -11.854332,-0.354486 z m -1.772288,-3.100389 c -0.301403,-0.487681 0.08664,-1.413399 0.862309,-2.057151 1.152345,-0.956361 1.311914,-0.79417 0.872358,0.886693 -0.593994,2.27144 -0.918781,2.490588 -1.734667,1.170458 z m 3.084565,-0.655571 c 0.654953,-1.706781 2.499039,-1.496844 3.116241,0.354764 0.21982,0.659459 -0.516599,1.1875 -1.656115,1.1875 -1.438103,0 -1.874903,-0.461372 -1.460126,-1.542264 z m 22.431398,-1.83952 -2.414009,-3.118216 2.860979,2.719697 c 1.573539,1.495833 2.659843,2.899031 2.41401,3.118216 -0.245834,0.219186 -1.533274,-1.004677 -2.86098,-2.719697 z M 7.6383736,82.052239 c 0.3165822,-0.825 1.1475716,-1.5 1.8466431,-1.5 0.6990713,0 2.0139253,-1.0125 2.9218963,-2.25 1.299396,-1.770983 1.44784,-1.824207 0.697258,-0.25 -0.89467,1.876408 -4.5737479,5.5 -5.5842171,5.5 -0.2514514,0 -0.1981625,-0.675 0.1184197,-1.5 z M 22.5,80.968193 c -1.65,-1.323311 -2.5275,-2.408255 -1.95,-2.410987 0.5775,-0.0027 1.55079,0.495823 2.162868,1.107901 0.612077,0.612077 1.65012,0.780827 2.306762,0.375 0.900772,-0.556708 0.860785,-0.948937 -0.162867,-1.597555 -0.907859,-0.575248 -0.962709,-0.864754 -0.16578,-0.875 1.768306,-0.02274 2.410098,1.541012 1.560957,3.803321 -0.736232,1.96149 -0.814611,1.953078 -3.75194,-0.40268 z m 11.904988,-3.665954 -1.904988,-2.25 2.25,1.904988 c 2.114445,1.790218 2.705241,2.595012 1.904988,2.595012 -0.189757,0 -1.202257,-1.0125 -2.25,-2.25 z m -19.195473,-7.75 c -0.230383,-8.218667 0.47606,-11.057887 2.553066,-10.260865 1.143209,0.438691 1.344661,0.21771 0.746802,-0.819196 -0.450289,-0.780967 0.600891,-0.09825 2.335955,1.517152 C 22.580402,61.60473 24,63.12233 24,63.361775 c 0,0.516785 -3.140393,-1.879768 -4.336747,-3.309536 -0.474631,-0.567235 -0.618689,-0.0085 -0.332876,1.291084 0.413612,1.880677 0.168852,2.184753 -1.366366,1.697493 -1.680779,-0.533458 -1.905797,0.09551 -2.221264,6.208917 l -0.351026,6.802506 -0.182206,-6.5 z m 2.598086,2.75 c -0.223508,-0.6875 -0.105891,-2.825 0.26137,-4.75 0.639178,-3.350259 0.673379,-3.29678 0.799388,1.25 0.129501,4.672785 -0.260807,5.960619 -1.060758,3.5 z m 11.597387,-1 -1.904988,-2.25 2.25,1.904988 c 2.114445,1.790218 2.705241,2.595012 1.904988,2.595012 -0.189757,0 -1.202257,-1.0125 -2.25,-2.25 z m -4,-5 -1.904988,-2.25 2.25,1.904988 c 2.114445,1.790218 2.705241,2.595012 1.904988,2.595012 -0.189757,0 -1.202257,-1.0125 -2.25,-2.25 z m 18.512781,-8 c -0.04523,-0.1375 -0.296265,-1.6 -0.557862,-3.25 C 42.91856,52.268494 42.986149,52.1901 44.29753,53.964719 45.891203,56.121349 49,55.538858 49,53.083624 49,51.58808 47.876758,51.126285 45.149648,51.500638 44.402586,51.603188 44.101593,51.196875 44.475931,50.591184 44.84808,49.989033 44.105739,48.586678 42.826283,47.474838 L 40.5,45.453312 l 3.352044,1.627913 c 3.235637,1.571379 3.44003,1.547052 5.885717,-0.700537 2.448732,-2.250387 2.495983,-2.255939 1.409415,-0.165602 -0.618342,1.189566 -1.640722,2.335002 -2.271957,2.545413 -0.837616,0.279206 -0.798072,0.94241 0.146361,2.454688 1.778986,2.848608 0.590395,5.337052 -2.549212,5.337052 -1.472291,0 -2.323636,0.431636 -1.972368,1 0.339919,0.55 0.366476,1 0.05902,1 -0.307459,0 -0.596021,-0.1125 -0.641248,-0.25 z m -28.512781,-4 -1.904988,-2.25 2.25,1.904988 c 2.114445,1.790218 2.705241,2.595012 1.904988,2.595012 -0.189757,0 -1.202257,-1.0125 -2.25,-2.25 z m 22.467457,-3.5 C 36.628574,49.216183 36.663944,49.180813 38.25,50.424684 c 1.665748,1.306369 2.195479,2.127555 1.372445,2.127555 -0.207656,0 -0.995156,-0.7875 -1.75,-1.75 z M 10.605952,48.704298 8.7119039,46.052239 11.050396,48.274461 c 1.286171,1.222222 2.138493,2.415649 1.894048,2.65206 C 12.7,51.162931 11.647678,50.162931 10.605952,48.704298 z M 5.5792917,43.496847 c -1.0563896,-1.065088 -1.695664,-2.161569 -1.4206098,-2.436623 0.2750543,-0.275055 1.5553143,0.623127 2.8450224,1.995958 2.732235,2.908331 1.424395,3.312933 -1.4244126,0.440665 z M 31.872445,43.802239 C 30.628574,42.216183 30.663944,42.180813 32.25,43.424684 c 1.665748,1.306369 2.195479,2.127555 1.372445,2.127555 -0.207656,0 -0.995156,-0.7875 -1.75,-1.75 z m 11.65083,0.787659 c -0.327118,-0.529287 -0.635746,-3.004287 -0.68584,-5.5 C 42.729457,33.710452 41,32.890644 41,38.218906 c 0,4.749899 -0.650206,4.003927 -1.263551,-1.449654 -0.382032,-3.39686 -0.114938,-4.479268 1.290968,-5.231686 C 43.292706,30.32522 44,32.021213 44,38.665411 c 0,3.571501 0.436354,5.117042 1.567217,5.550995 2.519958,0.966999 3.499745,-0.953073 3.571972,-6.999933 0.05857,-4.903625 0.326549,-5.664234 1.995619,-5.664234 2.451067,0 3.208349,1.952398 1.964685,5.065284 l -0.97272,2.434716 -0.06339,-2.75 c -0.03486,-1.5125 -0.479295,-2.75 -0.987629,-2.75 -0.508333,0 -0.744334,2.104646 -0.524445,4.676991 0.219889,2.572345 -0.0943,5.272345 -0.698202,6 -1.272861,1.533704 -5.457497,1.772141 -6.329835,0.360668 z M 26.872445,37.802239 C 25.628574,36.216183 25.663944,36.180813 27.25,37.424684 c 0.9625,0.754844 1.75,1.542344 1.75,1.75 0,0.823034 -0.821186,0.293303 -2.127555,-1.372445 z m -4.948131,-6 -2.424314,-2.75 2.75,2.424314 c 1.5125,1.333373 2.75,2.570873 2.75,2.75 0,0.784274 -0.809799,0.145975 -3.075686,-2.424314 z M 30.75,23.889958 c 0.6875,-0.277412 1.8125,-0.277412 2.5,0 0.6875,0.277413 0.125,0.504386 -1.25,0.504386 -1.375,0 -1.9375,-0.226973 -1.25,-0.504386 z M 16,22.101929 c 0,-0.79767 -0.7875,-1.956648 -1.75,-2.575505 -1.634344,-1.050833 -1.628939,-1.087161 0.08179,-0.54969 1.007481,0.316528 2.148552,0.575505 2.535712,0.575505 0.38716,0 0.703927,0.9 0.703927,2 0,1.1 -0.353572,2 -0.785715,2 C 16.353571,23.552239 16,22.8996 16,22.101929 z m 14.5,-1.54969 c -0.339919,-0.55 -0.141476,-1 0.440983,-1 0.582459,0 1.059017,0.45 1.059017,1 0,0.55 -0.198442,1 -0.440983,1 -0.242541,0 -0.719098,-0.45 -1.059017,-1 z M 19.450623,18.284161 C 19.028583,17.184342 17.778925,16.816667 15.177085,17.026799 11.15146,17.35192 10.038577,16.376421 10.015313,12.502239 9.9948942,9.1019758 11.749464,7.5330025 15.45,7.6424271 l 3.05,0.090188 -3.143381,0.9107755 c -3.524966,1.021338 -4.842118,3.2543284 -3.388622,5.7447904 0.866186,1.484149 0.974473,1.453234 1.001594,-0.285942 0.02365,-1.516667 0.297076,-1.683333 1.230409,-0.75 1.633206,1.633206 2.8,1.508192 2.8,-0.3 0,-2.782077 1.502225,-1.526819 2.6814,2.240576 1.142465,3.650104 0.95491,6.081197 -0.230777,2.991346 z m 24.628324,-0.63691 c -0.07849,-2.391109 -0.09193,-2.393995 -2.328947,-0.5 l -2.25,1.904988 1.77411,-2.105382 c 0.975761,-1.15796 1.507583,-2.799943 1.181827,-3.64885 -0.325757,-0.848907 -0.100457,-1.847433 0.500666,-2.218947 0.61014,-0.377087 0.971568,-0.09046 0.818174,0.648849 -0.173941,0.838336 0.550913,1.236913 1.975223,1.08612 2.53359,-0.268235 2.907789,0.937564 0.910714,2.934639 -0.736607,0.736607 -1.601081,2.00625 -1.921052,2.821428 -0.370602,0.944166 -0.610423,0.609199 -0.660715,-0.922845 z M 24.368874,17.052239 c 1.176634,-4.981179 1.834912,-6.492087 2.617712,-6.00829 0.463427,0.286413 1.091336,-0.04455 1.395356,-0.735479 0.304019,-0.6909272 0.292372,0.431269 -0.02588,2.493769 -0.389892,2.526768 -0.196894,3.75 0.591665,3.75 0.643669,0 0.856478,0.507787 0.472908,1.128416 -0.473006,0.76534 -1.003183,0.582011 -1.647754,-0.569774 -0.886005,-1.583202 -1.049421,-1.574969 -2.413396,0.121584 -1.398067,1.738956 -1.442061,1.730952 -0.99061,-0.180226 z m 8.646693,-1.018758 c 1.029449,-1.240409 0.947363,-1.864723 -0.44789,-3.40646 C 31.436302,11.376866 30.997903,9.6100828 31.269628,7.3957789 L 31.679926,4.0522388 31.839963,7.69525 c 0.100543,2.2887088 0.748072,3.868662 1.741824,4.25 2.115349,0.811736 2.633758,0.764765 2.046508,-0.185425 -0.269356,-0.435828 0.426771,-0.861453 1.546951,-0.945834 1.899579,-0.143091 1.926952,-0.03216 0.406611,1.647797 -0.956088,1.056465 -1.37437,2.584585 -1.011635,3.695833 0.522017,1.599215 0.435947,1.660742 -0.552021,0.394618 -0.884244,-1.133198 -1.294492,-1.194332 -1.677665,-0.25 -0.278962,0.6875 -0.974803,1.25 -1.546314,1.25 -0.621654,0 -0.53273,-0.610152 0.221345,-1.518758 z m 16.683288,-4.82363 C 49.331353,10.252156 47.561269,8.8300218 45.765335,8.0495544 43.189917,6.9303431 42.951985,6.6222523 44.639216,6.5913806 47.389737,6.5410536 51.42102,9.7891788 50.82547,11.57583 50.479877,12.612607 50.202576,12.522526 49.698855,11.209851 z M 19.621537,8.0287123 C 20.588691,5.4193663 21.968092,4.5614415 25,4.6835529 27.05226,4.7662086 27.141808,4.8708933 25.5,5.2680702 24.4,5.534176 22.462515,6.7088885 21.194479,7.8785424 19.0036,9.8994378 18.925385,9.9069058 19.621537,8.0287123 z M 23.75,7.8899581 c 0.6875,-0.2774123 1.8125,-0.2774123 2.5,0 0.6875,0.2774123 0.125,0.504386 -1.25,0.504386 -1.375,0 -1.9375,-0.2269737 -1.25,-0.504386 z m 12.75,-2.3377193 -3,-0.7633704 3,-0.103002 c 1.65,-0.056651 3.675,0.3332165 4.5,0.8663724 1.333333,0.8616662 1.333333,0.9579298 0,0.8663724 C 40.175,6.3619601 38.15,5.9720925 36.5,5.5522388 z M 30,2.1112558 c 0,-0.8574594 0.45,-1.559017 1,-1.559017 0.55,0 1,0.4234424 1,0.940983 0,0.5175407 -0.45,1.2190983 -1,1.559017 -0.55,0.3399187 -1,-0.083524 -1,-0.940983 z"
             id="path3794" />
          <path
             style="fill:#a61633"
             d="m 31.872445,89.302239 c 1.054179,-1.344181 2.677457,-1.707103 7,-1.565018 L 44.5,87.922204 39.030314,88.2971 c -3.008327,0.206193 -6.158327,0.910451 -7,1.565017 -1.339479,1.04171 -1.359166,0.971892 -0.157869,-0.559878 z M 17.846802,88.806308 C 8.2425359,88.545981 5.9652809,88.188181 4.8950299,86.771341 3.7934829,85.31307 3.8091407,85.241896 4.9982282,86.302239 c 0.9450543,0.842732 5.0642468,1.25 12.6427548,1.25 6.415299,0 11.506301,0.429294 11.859017,1 0.339919,0.55 0.478976,0.903235 0.309017,0.784967 -0.169959,-0.118268 -5.552956,-0.357172 -11.962215,-0.530898 z M 13.542705,85.621337 C 13.226274,85.109341 13.424717,84.407784 13.983688,84.06232 14.54266,83.716857 15,84.135763 15,84.993222 c 0,1.756526 -0.600055,2.015159 -1.457295,0.628115 z m 3.667868,-0.464138 C 18.540797,83.718022 20,83.955548 20,85.611256 c 0,0.517541 -0.917742,0.940983 -2.039427,0.940983 -1.694156,0 -1.821129,-0.236177 -0.75,-1.39504 z m 21.875417,-1.986744 -2.414009,-3.118216 2.860979,2.719697 c 1.573539,1.495833 2.659843,2.899031 2.41401,3.118216 -0.245834,0.219186 -1.533274,-1.004677 -2.86098,-2.719697 z M 7.6383736,82.052239 c 0.3165822,-0.825 0.752459,-1.5 0.9686152,-1.5 0.2161562,0 0.3930112,0.675 0.3930112,1.5 0,0.825 -0.4358768,1.5 -0.9686152,1.5 -0.5327384,0 -0.7095934,-0.675 -0.3930112,-1.5 z M 25.33328,81.337125 c 0.206821,-1.493312 -0.121058,-2.920286 -0.728621,-3.171052 -0.746974,-0.308308 -0.719023,-0.481502 0.08632,-0.534887 1.878788,-0.12454 2.402386,1.531506 1.289578,4.0787 -0.997709,2.283733 -1.013908,2.274404 -0.647281,-0.372761 z m 9.071708,-4.034886 -1.904988,-2.25 2.25,1.904988 c 2.114445,1.790218 2.705241,2.595012 1.904988,2.595012 -0.189757,0 -1.202257,-1.0125 -2.25,-2.25 z m -19.068782,-8.75 c 0,-4.125 0.176518,-5.8125 0.392262,-3.75 0.215745,2.0625 0.215745,5.4375 0,7.5 -0.215744,2.0625 -0.392262,0.375 -0.392262,-3.75 z m 2.949808,0.5 c 0.0075,-2.75 0.201713,-3.756313 0.431567,-2.23625 0.229855,1.520062 0.223712,3.770062 -0.01365,5 -0.237362,1.229937 -0.425424,-0.01375 -0.417917,-2.76375 z m 11.118974,2.25 -1.904988,-2.25 2.25,1.904988 c 2.114445,1.790218 2.705241,2.595012 1.904988,2.595012 -0.189757,0 -1.202257,-1.0125 -2.25,-2.25 z M 57.998406,50.25393 58.496811,27.052239 58.768019,49.482626 C 58.917183,61.819339 58.6929,72.2601 58.269613,72.684317 57.846326,73.108534 57.724282,63.01486 57.998406,50.25393 z m -32.593418,16.048309 -1.904988,-2.25 2.25,1.904988 c 2.114445,1.790218 2.705241,2.595012 1.904988,2.595012 -0.189757,0 -1.202257,-1.0125 -2.25,-2.25 z m -7.209351,-5.73444 0.227407,-2.984441 2.788478,2.671532 C 22.745185,61.724232 24,63.12233 24,63.361775 c 0,0.516785 -3.140393,-1.879768 -4.336747,-3.309536 -0.475909,-0.568761 -0.624091,-0.02971 -0.343619,1.25 0.27122,1.2375 0.07811,2.25 -0.429138,2.25 -0.507246,0 -0.819932,-1.342998 -0.694859,-2.98444 z m 25.722132,-2.26556 c -0.04523,-0.1375 -0.232925,-1.6 -0.417109,-3.25 -0.184183,-1.65 -0.114183,-2.2125 0.155555,-1.25 0.601445,2.14612 4.189051,2.316804 4.987045,0.237265 0.31927,-0.832004 0.01602,-2.192879 -0.673885,-3.024166 -0.689907,-0.831287 -1.040929,-1.724878 -0.780049,-1.985758 0.888631,-0.888631 3.078837,4.381453 2.474935,5.955198 -0.331962,0.865079 -1.762255,1.567461 -3.191893,1.567461 -1.472291,0 -2.323636,0.431636 -1.972368,1 0.339919,0.55 0.366476,1 0.05902,1 -0.307459,0 -0.596021,-0.1125 -0.641248,-0.25 z m -28.512781,-4 -1.904988,-2.25 2.25,1.904988 c 2.114445,1.790218 2.705241,2.595012 1.904988,2.595012 -0.189757,0 -1.202257,-1.0125 -2.25,-2.25 z m 22.467457,-3.5 C 36.628574,49.216183 36.663944,49.180813 38.25,50.424684 c 1.665748,1.306369 2.195479,2.127555 1.372445,2.127555 -0.207656,0 -0.995156,-0.7875 -1.75,-1.75 z M 10.605952,48.704298 8.7119039,46.052239 11.050396,48.274461 c 1.286171,1.222222 2.138493,2.415649 1.894048,2.65206 -0.244444,0.23641 -1.296766,-0.76359 -2.338492,-2.222223 z m 33.815823,1.974512 c 0.421152,-0.681439 -0.254862,-2.043162 -1.595492,-3.213859 L 40.5,45.433538 l 2.75,1.67436 c 2.971061,1.808956 3.409379,2.918789 1.595492,4.039833 -0.725035,0.448095 -0.882656,0.273658 -0.423717,-0.468921 z M 5.5792917,43.496847 c -1.0563896,-1.065088 -1.695664,-2.161569 -1.4206098,-2.436623 0.2750543,-0.275055 1.5553143,0.623127 2.8450224,1.995958 2.732235,2.908331 1.424395,3.312933 -1.4244126,0.440665 z M 31.872445,43.802239 C 30.628574,42.216183 30.663944,42.180813 32.25,43.424684 c 1.665748,1.306369 2.195479,2.127555 1.372445,2.127555 -0.207656,0 -0.995156,-0.7875 -1.75,-1.75 z m 11.794222,0.08333 C 43.3,43.518906 43,40.766422 43,37.768941 c 0,-5.153117 -0.122552,-5.419087 -2.25,-4.88307 -2.16456,0.545368 -2.176826,0.512216 -0.323001,-0.873036 1.05985,-0.791962 2.177127,-1.189803 2.482839,-0.884092 0.442998,0.442999 1.922064,13.423496 1.529543,13.423496 -0.05833,0 -0.406048,-0.3 -0.772714,-0.666667 z m 5.284481,-3.609392 c 0.486745,-4.11996 0.507591,-4.140805 0.846783,-0.846783 0.191265,1.857436 -0.0333,3.75821 -0.499029,4.22394 -0.465731,0.465731 -0.62222,-1.05399 -0.347754,-3.377157 z m -9.030242,-1.973034 c -0.297648,-2.149734 -0.14485,-3.374851 0.358178,-2.871823 0.482499,0.482499 0.716091,2.169591 0.519093,3.749094 -0.329717,2.643618 -0.399428,2.573907 -0.877271,-0.877271 z M 26.872445,37.802239 C 25.628574,36.216183 25.663944,36.180813 27.25,37.424684 c 0.9625,0.754844 1.75,1.542344 1.75,1.75 0,0.823034 -0.821186,0.293303 -2.127555,-1.372445 z m 25.702081,-2 c 0.447148,-2.486771 0.230685,-3.25 -0.921747,-3.25 -0.828372,0 -1.711926,0.7875 -1.963453,1.75 -0.344145,1.31691 -0.486031,1.19317 -0.573325,-0.5 -0.08419,-1.632991 0.441058,-2.25 1.915384,-2.25 2.570908,0 3.336479,1.939118 1.999792,5.065284 -0.937791,2.193253 -0.983079,2.112397 -0.456651,-0.815284 z m -30.650212,-4 -2.424314,-2.75 2.75,2.424314 c 1.5125,1.333373 2.75,2.570873 2.75,2.75 0,0.784274 -0.809799,0.145975 -3.075686,-2.424314 z"
             id="path3792" />
        </g>
      </g>
      <text
         id="text3887"
         y="145.3098"
         x="325.2691"
         style="font-size:40px;font-style:normal;font-weight:normal;fill:#000000;fill-opacity:1;stroke:none;font-family:Bitstream Vera Sans"
         xml:space="preserve"><tspan
           style="fill:#2e3436"
           y="145.3098"
           x="325.2691"
           id="tspan3889"
           sodipodi:role="line">L'Eperon</tspan><tspan
           style="font-size:14px;fill:#888a85"
           id="tspan3891"
           y="169.39432"
           x="325.2691"
           sodipodi:role="line">Royal Cercle Equestre Lige</tspan></text>
    </g>
    <text
       xml:space="preserve"
       style="font-size:40px;font-style:normal;font-weight:normal;fill:#000000;fill-opacity:1;stroke:none;font-family:Bitstream Vera Sans"
       x="436.90948"
       y="183.79076"
       id="text3893"><tspan
         sodipodi:role="line"
         id="tspan3895"
         x="436.90948"
         y="183.79076"
         style="font-size:22px;fill:#2e3436;-inkscape-font-specification:Graublau Web;font-family:Graublau Web">Accueil</tspan><tspan
         sodipodi:role="line"
         x="436.90948"
         y="211.29076"
         id="tspan3897"
         style="font-size:22px" /></text>
    <text
       id="text3899"
       y="183.79076"
       x="559.6571"
       style="font-size:40px;font-style:normal;font-weight:normal;fill:#000000;fill-opacity:1;stroke:none;font-family:Bitstream Vera Sans"
       xml:space="preserve"><tspan
         style="font-size:22px;fill:#2e3436;-inkscape-font-specification:Graublau Web;font-family:Graublau Web"
         y="183.79076"
         x="559.6571"
         id="tspan3901"
         sodipodi:role="line">Infrastructures</tspan><tspan
         style="font-size:22px"
         id="tspan3903"
         y="211.29076"
         x="559.6571"
         sodipodi:role="line" /></text>
    <text
       xml:space="preserve"
       style="font-size:40px;font-style:normal;font-weight:normal;fill:#000000;fill-opacity:1;stroke:none;font-family:Bitstream Vera Sans"
       x="768.89819"
       y="183.79076"
       id="text3905"><tspan
         sodipodi:role="line"
         id="tspan3907"
         x="768.89819"
         y="183.79076"
         style="font-size:22px;fill:#2e3436;-inkscape-font-specification:Graublau Web;font-family:Graublau Web">Horaires et tarifs</tspan><tspan
         sodipodi:role="line"
         x="768.89819"
         y="211.29076"
         id="tspan3909"
         style="font-size:22px" /></text>
    <text
       id="text3911"
       y="183.79076"
       x="1117.8569"
       style="font-size:40px;font-style:normal;font-weight:normal;fill:#000000;fill-opacity:1;stroke:none;font-family:Bitstream Vera Sans"
       xml:space="preserve"><tspan
         style="font-size:22;fill:#2e3436;-inkscape-font-specification:Graublau Web;font-family:Graublau Web"
         y="183.79076"
         x="1117.8569"
         id="tspan3913"
         sodipodi:role="line">Contact</tspan><tspan
         style="font-size:22px"
         id="tspan3915"
         y="211.29076"
         x="1117.8569"
         sodipodi:role="line" /></text>
    <rect
       rx="10.144775"
       ry="7.5681143"
       y="229.3333"
       x="50.509209"
       height="320.21365"
       width="1199.9512"
       id="rect3682"
       style="opacity:0.4;fill:#2e3436;fill-opacity:1;stroke:none;filter:url(#filter3696)"
       transform="matrix(1,0,0,1.5855984,-4,-131.26832)" />
    <rect
       style="fill:#fffbff;fill-opacity:1;stroke:none"
       id="rect3917"
       width="1199.9512"
       height="512.54669"
       x="46.009209"
       y="225.8333"
       ry="12.960327"
       rx="12.960327" />
    <text
       id="text3937"
       y="183.79076"
       x="1000.8698"
       style="font-size:40px;font-style:normal;font-weight:normal;fill:#000000;fill-opacity:1;stroke:none;font-family:Bitstream Vera Sans"
       xml:space="preserve"><tspan
         style="font-size:22px;fill:#2e3436;-inkscape-font-specification:Graublau Web;font-family:Graublau Web"
         y="183.79076"
         x="1000.8698"
         id="tspan3939"
         sodipodi:role="line">Forum</tspan><tspan
         style="font-size:22px"
         id="tspan3941"
         y="211.29076"
         x="1000.8698"
         sodipodi:role="line" /></text>
    <text
       xml:space="preserve"
       style="font-size:40px;font-style:normal;font-weight:normal;fill:#000000;fill-opacity:1;stroke:none;font-family:Bitstream Vera Sans"
       x="578.57141"
       y="541.42859"
       id="text3700"
       transform="translate(0,52.362183)"><tspan
         sodipodi:role="line"
         id="tspan3702"
         x="578.57141"
         y="541.42859" /></text>
    <g
       id="g3831"
       transform="translate(-16.5,185.36858)">
      <image
         xlink:href="file:///home/rapha/Bureau/facebook_favicon_large_v2-stream1-192x192_.png"
         width="10.677621"
         height="10.677621"
         id="image3785"
         x="1083.1007"
         y="572.84686" />
      <text
         id="text3789"
         y="582.73132"
         x="1098.541"
         style="font-size:40px;font-style:normal;font-weight:normal;fill:#000000;fill-opacity:1;stroke:none;font-family:Bitstream Vera Sans"
         xml:space="preserve"><tspan
           style="font-size:12px;fill:#2e3436;font-family:Graublau Web;-inkscape-font-specification:Graublau Web"
           y="582.73132"
           x="1098.541"
           id="tspan3791"
           sodipodi:role="line">Retrouvez-nous sur Facebook</tspan></text>
    </g>
    <text
       id="text2902"
       y="274.91574"
       x="72"
       style="font-size:40px;font-style:normal;font-weight:normal;fill:#babdb6;fill-opacity:1;stroke:none;font-family:Bitstream Vera Sans"
       xml:space="preserve"><tspan
         style="font-size:32px;fill:#babdb6;font-family:Graublau Web;-inkscape-font-specification:Graublau Web"
         y="274.91574"
         x="72"
         id="tspan2904"
         sodipodi:role="line">Accueil</tspan></text>
    <text
       xml:space="preserve"
       style="font-size:40px;font-style:normal;font-weight:normal;fill:#000000;fill-opacity:1;stroke:none;font-family:Bitstream Vera Sans"
       x="72"
       y="273.79074"
       id="text3793"><tspan
         sodipodi:role="line"
         id="tspan3795"
         x="72"
         y="273.79074"
         style="font-size:32px;font-family:Graublau Web;-inkscape-font-specification:Graublau Web">Accueil</tspan></text>
    <path
       style="fill:none;stroke:url(#linearGradient3827);stroke-width:0.82976006999999985;stroke-linecap:butt;stroke-linejoin:miter;stroke-miterlimit:4;stroke-opacity:1;stroke-dasharray:none"
       d="m 69.00993,285.21933 599.98014,0"
       id="path3797" />
    <rect
       style="opacity:0.4;fill:#2e3436;fill-opacity:1;stroke:none;filter:url(#filter3862)"
       id="rect3852"
       width="154.50227"
       height="117.38199"
       x="82.255486"
       y="302.73132"
       rx="0"
       ry="0"
       transform="matrix(0.99096117,0,0,0.99096117,0.6791898,2.3829506)" />
    <image
       y="300.87067"
       x="79.019356"
       id="image3846"
       height="116.5892"
       width="155.45227"
       xlink:href="file:///home/rapha/Documents/inkscape/inkscape_pasted_image_20100609_145436.png" />
    <text
       xml:space="preserve"
       style="font-size:19.6931076px;font-style:normal;font-weight:normal;fill:#000000;fill-opacity:1;stroke:none;font-family:Bitstream Vera Sans"
       x="251.92053"
       y="312.12064"
       id="text3866"><tspan
         sodipodi:role="line"
         id="tspan3868"
         x="251.92053"
         y="312.12064"
         style="font-size:13px">Le Royal Centre Equestre de Lige vous souhaite la bienvenue...</tspan><tspan
         sodipodi:role="line"
         x="251.92053"
         y="328.37064"
         id="tspan3870"
         style="font-size:13px" /><tspan
         sodipodi:role="line"
         x="251.92053"
         y="344.62064"
         id="tspan3872"
         style="font-size:13px">Ecole Suprieure d'Equitation de la LEWB (reconnue par l'ADEPS)</tspan><tspan
         sodipodi:role="line"
         x="251.92053"
         y="360.87064"
         id="tspan3874"
         style="font-size:13px">Poney Club Qualifi</tspan><tspan
         sodipodi:role="line"
         x="251.92053"
         y="377.12064"
         id="tspan3876"
         style="font-size:13px">Centre d'Entranement Espoirs Wallonie-Bruxelles </tspan></text>
    <text
       id="text3878"
       y="442.12064"
       x="79.920532"
       style="font-size:19.6931076px;font-style:normal;font-weight:normal;fill:#000000;fill-opacity:1;stroke:none;font-family:Bitstream Vera Sans"
       xml:space="preserve"><tspan
         style="font-size:13px"
         id="tspan3888"
         y="442.12064"
         x="79.920532"
         sodipodi:role="line">Lorem ipsum dolor sit amet, consectetur adipiscing elit. Phasellus consectetur ornare felis non accumsan. Donec placerat consectetur nunc at tincidunt. Pellentesque</tspan><tspan
         style="font-size:13px"
         y="458.37064"
         x="79.920532"
         sodipodi:role="line"
         id="tspan3905">ullamcorper libero sit amet sapien semper tincidunt. Curabitur consequat dapibus mauris nec condimentum. Aenean sed dui elit. Nullam at odio sem. Nulla vitae ante</tspan><tspan
         style="font-size:13px"
         y="474.62064"
         x="79.920532"
         sodipodi:role="line"
         id="tspan3908">sem, id blandit nibh. Cras blandit rhoncus massa, at sodales arcu tristique eu. Quisque fermentum commodo arcu, ut adipiscing nunc commodo vitae. Maecenas aliquet</tspan><tspan
         style="font-size:13px"
         y="490.87064"
         x="79.920532"
         sodipodi:role="line"
         id="tspan3910">mattis tempor. Nam rhoncus ultrices nisi bibendum consequat. Integer quam ipsum, cursus sed pretium vel, pellentesque eu neque. Nam dapibus malesuada arcu,</tspan><tspan
         style="font-size:13px"
         y="507.12064"
         x="79.920532"
         sodipodi:role="line"
         id="tspan3912">vestibulum congue urna tempor sed. Etiam sodales faucibus dui, et aliquet sem aliquet ornare. Sed et risus leo. Nam bibendum adipiscing ante, non lobortis lacus</tspan><tspan
         style="font-size:13px"
         y="507.12064"
         x="79.920532"
         sodipodi:role="line"
         id="tspan3914">pellentesque id. Phasellus pretium vestibulum tellus eu vehicula. Aenean posuere ornare enim in pretium. Quisque in sem metus.</tspan></text>
  </g>
</svg>
